<svg width="24" height="35" viewBox="0 0 24 35" fill="none" xmlns="http://www.w3.org/2000/svg">
<rect x="7.5592" y="10.1586" width="8.59641" height="24.1304" rx="4.29821" stroke="black"/>
<path d="M12.8994 10.3976H12.0139C10.8988 10.3976 9.83869 9.91316 9.10891 9.07002L8.03399 7.82814C7.39796 7.09332 6.98986 6.18908 6.85961 5.226L6.57158 3.09629C6.39286 1.7748 5.2647 0.78894 3.93117 0.78894C2.24342 0.78894 0.980897 2.33818 1.32156 3.99119L2.26102 8.54981L3.03798 12.3199C3.51684 14.6435 5.56265 16.3107 7.93507 16.3107H12.8994C14.5323 16.3107 15.8559 14.987 15.8559 13.3542C15.8559 11.7213 14.5323 10.3976 12.8994 10.3976Z" stroke="black"/>
<path d="M10.8154 10.3976L11.7009 10.3976C12.8161 10.3976 13.8762 9.91316 14.6059 9.07002L15.6809 7.82814C16.3169 7.09332 16.725 6.18907 16.8552 5.22599L17.1433 3.09629C17.322 1.77479 18.4501 0.78894 19.7837 0.78894C21.4714 0.78894 22.7339 2.33818 22.3933 3.99119L21.4538 8.54981L20.6769 12.3199C20.198 14.6435 18.1522 16.3107 15.7798 16.3107L10.8154 16.3107C9.18258 16.3107 7.8589 14.987 7.8589 13.3542C7.8589 11.7213 9.18258 10.3976 10.8154 10.3976Z" stroke="black"/>
</svg>
