<svg width="33" height="33" viewBox="0 0 33 33" fill="none" xmlns="http://www.w3.org/2000/svg">
<circle cx="8.39741" cy="19.7089" r="5.15253" stroke="black"/>
<path fill-rule="evenodd" clip-rule="evenodd" d="M16.7039 8.14162L12.4588 16.6143C12.1377 17.2551 11.3579 17.5144 10.717 17.1933C10.0761 16.8722 9.8169 16.0923 10.138 15.4514L14.3831 6.9788L16.7039 8.14162ZM17.598 8.58958L13.3529 17.0622C12.7844 18.1969 11.4037 18.6558 10.2691 18.0873C9.13441 17.5188 8.67545 16.1381 9.24395 15.0035L13.5015 6.50597C12.3964 5.73929 11.9943 4.25708 12.6143 3.01962C13.2518 1.74735 14.7433 1.18564 16.0453 1.68139C16.7257 0.993762 17.7964 0.787101 18.7082 1.24395C19.6154 1.69848 20.0906 2.67217 19.9542 3.6242L24.723 6.01357C26.0796 6.69327 26.6284 8.34402 25.9487 9.70061C25.269 11.0572 23.6182 11.6059 22.2616 10.9262L17.598 8.58958ZM19.6115 4.57098L24.2751 6.90763C25.1379 7.33993 25.4869 8.38983 25.0546 9.25265C24.6223 10.1155 23.5724 10.4645 22.7096 10.0322L18.046 7.69552L19.6115 4.57098ZM18.7174 4.12303L17.1519 7.24757L14.8311 6.08474L16.3966 2.96021L18.7174 4.12303ZM18.9658 3.12898C18.9111 2.71689 18.6599 2.33825 18.2602 2.13801C17.8606 1.93777 17.4069 1.96321 17.0441 2.16615L18.9658 3.12898ZM15.4827 2.55181C14.7091 2.3634 13.8802 2.7254 13.5084 3.46757C13.1365 4.20975 13.3428 5.09035 13.9568 5.59723L15.4827 2.55181Z" fill="black"/>
<path fill-rule="evenodd" clip-rule="evenodd" d="M0.0316589 2.09096C-0.175087 1.00554 0.657006 0 1.76193 0C2.65024 0 3.39953 0.661463 3.50971 1.54291L3.65711 2.7221C3.70537 3.1082 3.85959 3.47341 4.10266 3.77726L4.61516 4.41788C4.83689 4.69504 5.16251 4.86661 5.5133 4.89475C5.8641 4.86661 6.18972 4.69504 6.41145 4.41788L6.92395 3.77726C7.16702 3.47341 7.32124 3.1082 7.3695 2.7221L7.5169 1.54291C7.62708 0.661463 8.37637 0 9.26468 0C10.3696 0 11.2017 1.00554 10.995 2.09096L10.2517 5.99281C9.99714 7.32944 9.02163 8.37456 7.77435 8.75651V15.5734C7.77435 16.8222 6.76206 17.8344 5.51333 17.8344C4.26461 17.8344 3.25232 16.8222 3.25232 15.5734V8.75653C2.00501 8.37459 1.02947 7.32946 0.77487 5.99281L0.0316589 2.09096ZM5.89157 8.91355L6.72216 8.91355C6.73958 8.91355 6.75698 8.91342 6.77435 8.91317V15.5734C6.77435 16.2699 6.20977 16.8344 5.51333 16.8344C4.81689 16.8344 4.25232 16.2699 4.25232 15.5734V8.91317C4.26967 8.91342 4.28705 8.91355 4.30445 8.91355L5.13647 8.91355L5.89014 8.91355C5.89062 8.91355 5.8911 8.91355 5.89157 8.91355ZM4.01389 5.24185C3.48008 5.60261 3.12913 6.21342 3.12913 6.9062C3.12913 7.15014 3.17264 7.38391 3.25232 7.60018V7.69078C2.49471 7.35409 1.9205 6.66298 1.75721 5.8057L1.014 1.90384C0.924629 1.43466 1.28431 1 1.76193 1C2.14592 1 2.46981 1.28593 2.51744 1.66694L2.66483 2.84613C2.736 3.41544 2.96338 3.95394 3.3218 4.40195L3.83429 5.04258C3.89054 5.11288 3.95054 5.17937 4.01389 5.24185ZM7.77435 7.69075C8.53193 7.35406 9.10612 6.66295 9.2694 5.8057L10.0126 1.90384C10.102 1.43466 9.7423 1 9.26468 1C8.8807 1 8.5568 1.28593 8.50918 1.66694L8.36178 2.84613C8.29061 3.41544 8.06323 3.95394 7.70482 4.40195L7.19232 5.04257C7.13607 5.11288 7.07607 5.17937 7.01271 5.24185C7.54653 5.60261 7.89748 6.21342 7.89748 6.90621C7.89748 7.15008 7.85399 7.3838 7.77435 7.60003V7.69075ZM5.13647 7.91355L5.89014 7.91355C5.89047 7.91355 5.8908 7.91355 5.89113 7.91355C6.27204 7.91318 6.60345 7.7014 6.77435 7.38922V7.28305C6.77435 6.58661 6.20977 6.02203 5.51333 6.02203C4.81689 6.02203 4.25232 6.58661 4.25232 7.28305V7.38932C4.42338 7.70171 4.75519 7.91355 5.13647 7.91355Z" fill="black"/>
<path fill-rule="evenodd" clip-rule="evenodd" d="M12.1179 21.7632C11.7653 18.8416 13.8478 16.1873 16.7694 15.8347L27.3177 14.5615C29.1089 14.3453 30.7363 15.6222 30.9525 17.4135C31.1688 19.2047 29.8919 20.8321 28.1006 21.0483L18.9748 22.1498C18.9204 22.3984 18.8323 22.6438 18.7087 22.8802L17.6934 24.8211C16.9457 26.2504 15.181 26.8029 13.7517 26.0553C12.436 25.367 11.8632 23.8168 12.3638 22.4599L12.2043 22.4791L12.1179 21.7632ZM13.0479 21.0997L13.5328 20.1727C14.2805 18.7434 16.0452 18.1909 17.4745 18.9385C18.3571 19.4002 18.9054 20.2497 19.0196 21.1686L27.9845 20.0865C29.2446 19.9344 30.1428 18.7896 29.9907 17.5295C29.8386 16.2695 28.6938 15.3712 27.4338 15.5233L16.8855 16.7965C14.6791 17.0628 13.0576 18.9335 13.0479 21.0997ZM16.8349 24.3721L17.8502 22.4311C18.3499 21.4759 17.9806 20.2966 17.0254 19.7969C16.0703 19.2973 14.8909 19.6666 14.3913 20.6217L13.376 22.5627C12.8763 23.5178 13.2456 24.6972 14.2008 25.1968C15.1559 25.6965 16.3353 25.3272 16.8349 24.3721Z" fill="black"/>
</svg>
