<svg width="32" height="33" viewBox="0 0 32 33" fill="none" xmlns="http://www.w3.org/2000/svg">
<path d="M26.9616 5.32748L26.9608 5.32664C25.5431 3.90327 23.8591 2.77156 22.0042 1.9958L22.0034 1.99546C20.1031 1.19685 18.0613 0.787467 15.9993 0.791658L15.9983 0.79166L15.928 0.791659C13.8287 0.802205 11.8015 1.21756 9.89226 2.03357L9.89178 2.03377C8.05269 2.81754 6.38433 3.95135 4.9799 5.37177L4.9791 5.37258C3.57084 6.7904 2.45245 8.46797 1.68616 10.3118L26.9616 5.32748ZM26.9616 5.32748C28.3838 6.74866 29.5153 8.43229 30.2931 10.2845L26.9616 5.32748ZM0.500307 16.3635L0.500313 16.3645C0.510713 18.7654 1.08641 21.1498 2.16109 23.2808L2.21465 23.387V23.5059V28.9345C2.21465 29.5652 2.72777 30.0773 3.35739 30.0773H8.79027H8.90905L9.01514 30.1308C11.1607 31.2111 13.5283 31.7797 15.9316 31.7916H16.0055C18.0801 31.7916 20.0872 31.3903 21.9805 30.6048C23.8259 29.8383 25.5036 28.7198 26.9196 27.312L26.9202 27.3114C28.3489 25.8962 29.4718 24.243 30.2588 22.3989C31.0732 20.4899 31.4894 18.4597 31.4999 16.3612C31.5068 14.2531 31.0977 12.2086 30.2932 10.2846L0.500307 16.3635ZM0.500307 16.3635C0.48725 14.2877 0.890394 12.2302 1.68604 10.3121L0.500307 16.3635ZM6.64037 16.2916C6.64037 17.5145 7.63402 18.5059 8.8547 18.5059C10.0796 18.5059 11.069 17.5138 11.069 16.2916C11.069 15.0688 10.0754 14.0774 8.8547 14.0774C7.63402 14.0774 6.64037 15.0688 6.64037 16.2916ZM13.784 16.2916C13.784 17.5145 14.7777 18.5059 15.9983 18.5059C17.219 18.5059 18.2127 17.5145 18.2127 16.2916C18.2127 15.0688 17.219 14.0774 15.9983 14.0774C14.7776 14.0774 13.784 15.0688 13.784 16.2916ZM20.9276 16.2916C20.9276 17.5145 21.9213 18.5059 23.142 18.5059C24.3626 18.5059 25.3563 17.5145 25.3563 16.2916C25.3563 15.0688 24.3626 14.0774 23.142 14.0774C21.9213 14.0774 20.9276 15.0688 20.9276 16.2916Z" stroke="black"/>
</svg>
