<svg width="32" height="33" viewBox="0 0 32 33" fill="none" xmlns="http://www.w3.org/2000/svg">
<path d="M3.27538 1.80414L3.27523 1.80422C1.67424 2.69642 0.561935 4.26447 0.506797 6.3761L0.506796 6.37613C0.41505 9.88124 1.22671 14.6171 4.49965 20.2103C7.73862 25.7414 11.3039 29.041 14.2432 30.9923L14.2434 30.9925C15.9867 32.1511 17.8969 32.181 19.5393 31.4278C21.167 30.6804 22.5146 29.1742 23.2177 27.2806L3.27538 1.80414ZM3.27538 1.80414C4.86134 0.919594 6.91075 0.700673 8.8909 1.20106L8.89142 1.20119M3.27538 1.80414L8.89142 1.20119M8.89142 1.20119C9.7763 1.4238 10.5319 1.99596 10.9855 2.78336C10.9855 2.78341 10.9856 2.78347 10.9856 2.78353L12.7856 5.91129L8.89142 1.20119ZM11.2897 11.9389L11.2899 11.9388C12.2704 11.3186 12.9726 10.3458 13.251 9.22333C13.5294 8.1009 13.3628 6.91466 12.7856 5.91134L11.2897 11.9389ZM11.2897 11.9389L9.70683 12.9412L11.2897 11.9389ZM14.3122 20.5876L14.3121 20.5876C13.4639 21.0807 12.4842 21.0152 11.8995 20.4032C11.8994 20.403 11.8992 20.4028 11.8991 20.4027L12.2608 20.0575L14.3122 20.5876ZM14.3122 20.5876L15.188 20.0783C15.188 20.0783 15.1881 20.0783 15.1882 20.0782C15.7056 19.7777 16.278 19.5828 16.872 19.505C17.466 19.4272 18.0697 19.468 18.6477 19.625C19.2257 19.7821 19.7665 20.0522 20.2384 20.4196C20.7104 20.787 21.1041 21.2442 21.3967 21.7646L21.3968 21.7649M14.3122 20.5876L21.3968 21.7649M21.3968 21.7649L23.0102 24.6307M21.3968 21.7649L23.0102 24.6307M23.0102 24.6307C23.0103 24.6309 23.0104 24.631 23.0105 24.6312M23.0102 24.6307L23.0105 24.6312M23.0105 24.6312C23.4652 25.4413 23.5399 26.4084 23.218 27.28L23.0105 24.6312ZM20.7262 1.91707L20.7258 1.91685C20.6092 1.85226 20.5237 1.74449 20.4874 1.6177C20.4511 1.49095 20.4668 1.355 20.5312 1.23959C20.5956 1.12412 20.7038 1.03837 20.8323 1.00183C20.9608 0.965281 21.0987 0.981166 21.2153 1.04579L21.983 1.47123L21.9833 1.47136C24.6009 2.92016 26.8274 4.97897 28.4724 7.47162C30.1173 9.96409 31.132 12.8163 31.4298 15.7843C31.4299 15.7845 31.4299 15.7847 31.4299 15.7849L31.492 16.4115L31.4931 16.423L31.4948 16.4345C31.5045 16.5009 31.5006 16.5686 31.4833 16.6335C31.4661 16.6984 31.4357 16.7593 31.3941 16.8124C31.3525 16.8655 31.3004 16.9098 31.241 16.9424C31.1815 16.9751 31.1159 16.9955 31.0482 17.0023L31.098 17.4998L31.0482 17.0023C30.9804 17.0091 30.912 17.0021 30.8471 16.9819C30.7822 16.9616 30.7222 16.9285 30.6707 16.8846C30.6192 16.8408 30.5772 16.787 30.5473 16.7268C30.5173 16.6665 30.5 16.6009 30.4962 16.5339L30.4956 16.5225L30.4944 16.5112L30.4304 15.8828C30.1483 13.0747 29.1882 10.3766 27.6322 8.01896C26.0762 5.66141 23.9707 3.71447 21.4956 2.34436C21.4955 2.3443 21.4954 2.34425 21.4953 2.3442L20.7262 1.91707ZM19.5388 6.21927L19.5589 6.18586C19.6278 6.09022 19.7291 6.02121 19.8454 5.99232C19.9751 5.9601 20.1123 5.98058 20.2266 6.04902L20.2279 6.04976L20.4756 6.19705C20.4757 6.19713 20.4759 6.19722 20.476 6.19731C22.0318 7.12688 23.3664 8.38192 24.3876 9.87557C25.4087 11.3692 26.0921 13.0658 26.3907 14.8481C26.3907 14.8484 26.3908 14.8486 26.3908 14.8488L26.4789 15.3811L26.4802 15.389L26.4817 15.3968C26.4946 15.462 26.4943 15.5292 26.4807 15.5944C26.4671 15.6595 26.4404 15.7213 26.4023 15.7762C26.3642 15.8311 26.3153 15.8779 26.2585 15.9138C26.2017 15.9497 26.1381 15.9739 26.0716 15.985C26.005 15.996 25.9369 15.9936 25.8713 15.9779C25.8057 15.9622 25.7441 15.9336 25.69 15.8939C25.6359 15.8541 25.5905 15.804 25.5564 15.7466C25.5222 15.6892 25.5001 15.6257 25.4911 15.5598L25.49 15.5516L25.4886 15.5435L25.3986 15.0135C25.3986 15.0131 25.3985 15.0128 25.3985 15.0124C25.1244 13.3721 24.4962 11.8107 23.5574 10.4361C22.6183 9.06129 21.391 7.90616 19.9603 7.0505L19.9592 7.04986L19.7113 6.90243C19.6547 6.86863 19.6054 6.82411 19.5662 6.77149C19.527 6.71888 19.4987 6.65919 19.4827 6.59585L18.9978 6.71785L19.4827 6.59584C19.4668 6.5325 19.4635 6.46668 19.4731 6.40211C19.4827 6.33754 19.505 6.27541 19.5388 6.21927Z" stroke="black"/>
</svg>
